<?xml version="1.0" standalone="no"?>
<!DOCTYPE svg PUBLIC "-//W3C//DTD SVG 20010904//EN"
 "http://www.w3.org/TR/2001/REC-SVG-20010904/DTD/svg10.dtd">
<svg version="1.0" xmlns="http://www.w3.org/2000/svg"
 width="245.000000pt" height="270.000000pt" viewBox="0 0 245.000000 270.000000"
 preserveAspectRatio="xMidYMid meet">

<g transform="translate(0.000000,270.000000) scale(0.100000,-0.100000)"
fill="#000000" stroke="none">
<path d="M1596 2565 c-21 -25 -34 -50 -31 -55 4 -6 1 -9 -5 -8 -15 4 -103
-158 -130 -238 -11 -34 -26 -90 -34 -124 l-12 -64 -83 -3 c-164 -6 -377 -75
-458 -147 -46 -41 -64 -70 -112 -177 -11 -25 -26 -50 -33 -56 -18 -15 -110
-41 -392 -112 -247 -63 -270 -73 -263 -118 2 -12 1 -20 -4 -17 -12 7 1 -135
17 -185 44 -138 159 -241 270 -241 44 0 144 21 139 30 -2 4 7 5 21 2 34 -6 21
-16 -53 -41 -40 -13 -88 -21 -133 -21 -38 0 -70 -3 -70 -7 0 -3 11 -21 25 -39
57 -75 191 -101 438 -84 80 5 152 12 160 16 13 5 23 -8 44 -57 40 -95 99 -204
157 -294 63 -97 223 -268 243 -261 8 3 11 2 8 -4 -6 -10 162 -126 269 -184
l69 -38 -81 81 c-44 45 -104 112 -132 149 -98 129 -170 309 -170 427 0 50 5
57 56 83 23 12 55 32 71 46 29 24 71 101 61 111 -3 3 -25 1 -49 -4 -187 -43
-336 43 -355 206 -3 26 -15 70 -26 97 -25 62 -26 139 -2 208 14 40 37 71 91
125 l72 73 -13 32 c-19 46 -38 174 -34 228 l3 45 45 -3 c68 -5 188 -49 258
-94 35 -23 70 -41 77 -41 8 0 13 -5 12 -11 -1 -6 26 -16 61 -23 253 -52 442
-238 527 -518 15 -50 43 -114 62 -143 86 -132 140 -305 150 -487 5 -90 -6
-227 -24 -290 -13 -48 17 6 45 81 56 148 67 212 66 399 0 173 -3 190 -50 338
-32 100 -104 248 -117 240 -6 -3 -7 -1 -3 5 12 20 -95 174 -194 277 -43 44
-64 77 -80 123 -13 34 -27 62 -32 62 -5 0 -7 4 -4 9 7 10 -55 162 -63 156 -3
-1 -7 7 -7 18 -1 20 -87 277 -136 407 -38 102 -68 160 -82 160 -7 0 -30 -20
-50 -45z m-629 -866 c34 -11 48 -34 16 -26 -10 3 -36 8 -58 11 -97 16 -95 14
-95 56 l0 39 52 -35 c29 -18 67 -39 85 -45z m-808 -215 c27 -34 26 -45 -3 -77
-13 -14 -22 -28 -20 -30 2 -2 -2 -4 -8 -4 -7 0 -22 -4 -33 -9 -19 -8 -20 -7
-2 16 28 40 39 73 33 103 -7 34 7 35 33 1z m821 -147 c-7 -49 -7 -61 5 -132 5
-32 1 -50 -19 -88 -15 -27 -23 -53 -20 -59 4 -6 2 -8 -3 -5 -6 4 -13 0 -16 -7
-4 -10 2 -16 16 -18 16 -2 23 -12 27 -38 17 -102 133 -162 224 -115 33 17 36
18 36 7 0 -12 -55 -41 -96 -51 l-39 -8 28 -12 c45 -18 108 -13 167 14 51 23
53 24 30 4 -14 -12 -24 -25 -23 -28 2 -8 -6 -9 -107 -17 -71 -5 -77 -4 -121
25 -47 31 -100 91 -120 134 -6 14 -22 28 -35 31 -36 9 -32 65 8 135 28 50 31
65 33 146 1 50 7 100 14 113 17 33 20 25 11 -31z"/>
<path d="M1439 1415 c-28 -15 -49 -60 -49 -101 0 -13 -5 -24 -10 -24 -6 0 -24
-21 -41 -47 -25 -39 -29 -55 -26 -87 6 -42 26 -71 34 -48 8 21 53 62 68 62 23
0 18 -16 -11 -39 l-25 -20 31 -16 c41 -21 90 -12 90 17 0 36 -23 98 -33 91 -6
-3 -7 -2 -4 4 4 6 0 19 -8 29 -17 23 -19 38 -3 28 7 -5 9 0 6 14 -9 32 25 58
57 44 45 -21 23 -92 -24 -79 -18 4 -18 4 -1 -27 38 -64 60 -217 58 -406 -2
-205 5 -232 99 -389 31 -53 63 -109 71 -124 8 -16 15 -27 17 -25 1 2 -1 45 -5
96 -13 148 7 318 51 434 11 29 21 58 22 63 4 18 67 120 67 109 0 -6 -11 -36
-25 -67 -45 -103 -58 -173 -58 -307 1 -105 5 -139 27 -213 14 -48 41 -116 58
-150 l33 -62 6 130 c8 142 33 255 73 334 23 44 31 34 12 -15 -48 -127 -54
-286 -17 -437 13 -54 27 -96 31 -95 22 9 105 119 134 176 50 100 58 134 58
237 -1 96 -32 235 -53 235 -6 0 -8 4 -4 10 13 21 -134 274 -203 347 -16 17
-27 35 -23 39 3 4 -1 5 -10 2 -12 -5 -15 -1 -12 16 3 13 -2 28 -11 35 -18 16
-21 51 -4 51 6 0 1 8 -10 19 -26 22 -28 41 -6 41 14 0 15 2 3 17 -11 12 -11
17 -2 20 39 14 105 75 93 86 -3 3 -36 -3 -75 -13 -71 -19 -191 -27 -167 -11 8
5 -17 11 -65 15 -43 3 -103 9 -133 11 -38 4 -63 1 -81 -10z"/>
<path d="M1480 1286 c0 -21 20 -30 33 -17 9 9 8 14 -3 21 -21 14 -30 12 -30
-4z"/>
<path d="M1087 1264 c-3 -3 -3 -12 0 -20 6 -17 46 -18 75 -3 17 9 18 13 7 20
-16 10 -73 12 -82 3z"/>
</g>
</svg>
